<svg width="18" height="20" viewBox="0 0 18 20" fill="none" xmlns="http://www.w3.org/2000/svg">
<path d="M11.9998 14.9992V15.9991C11.9998 16.7947 11.6838 17.5578 11.1212 18.1203C10.5586 18.6829 9.79561 18.999 9 18.999C8.20439 18.999 7.44137 18.6829 6.87879 18.1203C6.31622 17.5578 6.00016 16.7947 6.00016 15.9991V14.9992M11.9998 14.9992H6.00016M11.9998 14.9992H15.5896C15.9726 14.9992 16.1646 14.9992 16.3196 14.9472C16.4654 14.8978 16.5978 14.8155 16.7066 14.7066C16.8153 14.5976 16.8974 14.4651 16.9466 14.3192C16.9996 14.1632 16.9996 13.9712 16.9996 13.5853C16.9996 13.4163 16.9996 13.3323 16.9856 13.2513C16.9609 13.0999 16.9017 12.9562 16.8126 12.8313C16.7646 12.7643 16.7046 12.7043 16.5856 12.5853L16.1956 12.1953C16.1334 12.1331 16.0841 12.0592 16.0505 11.9778C16.0168 11.8965 15.9996 11.8094 15.9996 11.7214V7.99957C15.9996 7.08036 15.8186 6.17016 15.4668 5.32093C15.115 4.47169 14.5995 3.70006 13.9495 3.05009C13.2995 2.40011 12.5279 1.88452 11.6786 1.53276C10.8294 1.181 9.9192 0.999946 9 0.999946C8.0808 0.999946 7.17059 1.181 6.32136 1.53276C5.47213 1.88452 4.7005 2.40011 4.05052 3.05009C3.40055 3.70006 2.88496 4.47169 2.53319 5.32093C2.18143 6.17016 2.00038 7.08036 2.00038 7.99957V11.7214C2.00044 11.8094 1.98317 11.8965 1.94954 11.9778C1.91591 12.0592 1.86659 12.1331 1.80439 12.1953L1.41441 12.5853C1.29442 12.7053 1.23542 12.7643 1.18842 12.8303C1.09846 12.9553 1.03857 13.0994 1.01343 13.2513C1.00043 13.3313 1.00043 13.4163 1.00043 13.5853C1.00043 13.9712 1.00043 14.1632 1.05243 14.3192C1.10176 14.4653 1.1842 14.598 1.29331 14.7069C1.40242 14.8159 1.53524 14.8981 1.6814 14.9472C1.83639 14.9992 2.02738 14.9992 2.41036 14.9992H6.00016" stroke="#73768C" stroke-width="2" stroke-linecap="round" stroke-linejoin="round"/>
</svg>
