<svg width="22" height="20" viewBox="0 0 22 20" fill="none" xmlns="http://www.w3.org/2000/svg">
<path fill-rule="evenodd" clip-rule="evenodd" d="M0 10.3344L0 9.63592C0 9.32733 0.242184 9.07714 0.541192 9.07714C3.49137 9.07714 6.08368 7.48002 7.55031 5.07862C7.65246 4.91127 7.83241 4.81223 8.02385 4.81809C8.2153 4.82403 8.38983 4.93404 8.48184 5.1074C8.55287 5.24095 8.77408 5.64124 8.85255 5.7824C8.95538 5.96833 8.94591 6.19855 8.82888 6.37519C7.01994 9.10257 3.98182 10.8932 0.541192 10.8932C0.242184 10.8932 0 10.643 0 10.3344Z" fill="#C9CACF"/>
<path fill-rule="evenodd" clip-rule="evenodd" d="M21.1182 9.66562V10.3641C21.1182 10.6727 20.876 10.9229 20.577 10.9229C17.6491 10.9229 15.0744 12.4955 13.6024 14.8661C13.5022 15.0276 13.3284 15.1246 13.1423 15.1232C12.957 15.1218 12.7845 15.022 12.6871 14.859C12.5984 14.7116 12.4239 14.4028 12.3008 14.1986C12.1871 14.0096 12.1925 13.7689 12.315 13.5859C14.1273 10.8804 17.1533 9.10684 20.577 9.10684C20.876 9.10684 21.1182 9.35703 21.1182 9.66562Z" fill="#C9CACF"/>
<path fill-rule="evenodd" clip-rule="evenodd" d="M0.000141144 10.3344V9.63592C0.000141144 9.32734 0.242324 9.07715 0.541333 9.07715C6.08111 9.07715 10.5791 13.7211 10.5791 19.4412C10.5791 19.7498 10.3369 20 10.0379 20H9.36141C9.06241 20 8.82022 19.7498 8.82022 19.4412C8.82022 14.7234 5.11035 10.8932 0.541333 10.8932C0.242324 10.8932 0.000141144 10.643 0.000141144 10.3344Z" fill="white"/>
<path fill-rule="evenodd" clip-rule="evenodd" d="M21.118 9.66561V10.3641C21.118 10.6727 20.8758 10.9229 20.5768 10.9229C15.0371 10.9229 10.5391 6.27888 10.5391 0.558774C10.5391 0.250191 10.7813 0 11.0803 0L11.7567 0C12.0558 0 12.2979 0.250191 12.2979 0.558774C12.2979 5.27658 16.0078 9.10683 20.5768 9.10683C20.8758 9.10683 21.118 9.35696 21.118 9.66561Z" fill="white"/>
</svg>
