<svg width="18" height="16" viewBox="0 0 18 16" fill="none" xmlns="http://www.w3.org/2000/svg">
<path fill-rule="evenodd" clip-rule="evenodd" d="M0 8.26752L0 7.70874C0 7.46188 0.19815 7.26173 0.442794 7.26173C2.85657 7.26173 4.97755 5.98403 6.17753 4.06291C6.2611 3.92903 6.40833 3.84979 6.56497 3.85449C6.72161 3.85924 6.86441 3.94724 6.93969 4.08593C6.9978 4.19277 7.17879 4.513 7.243 4.62593C7.32713 4.77468 7.31938 4.95885 7.22363 5.10016C5.74359 7.28207 3.25786 8.71454 0.442794 8.71454C0.19815 8.71454 0 8.51439 0 8.26752Z" fill="#495BD9"/>
<path fill-rule="evenodd" clip-rule="evenodd" d="M17.2788 7.7325V8.29127C17.2788 8.53814 17.0807 8.73829 16.836 8.73829C14.4405 8.73829 12.3339 9.99637 11.1295 11.8929C11.0476 12.0221 10.9054 12.0997 10.7531 12.0986C10.6015 12.0974 10.4603 12.0176 10.3806 11.8872C10.3081 11.7693 10.1653 11.5223 10.0646 11.3589C9.97161 11.2077 9.97603 11.0151 10.0762 10.8687C11.559 8.70432 14.0348 7.28548 16.836 7.28548C17.0807 7.28548 17.2788 7.48563 17.2788 7.7325Z" fill="#495BD9"/>
<path fill-rule="evenodd" clip-rule="evenodd" d="M0.000247955 8.26751V7.70874C0.000247955 7.46187 0.198398 7.26172 0.443042 7.26172C4.97559 7.26172 8.65576 10.9769 8.65576 15.553C8.65576 15.7998 8.45761 16 8.21296 16H7.65947C7.41483 16 7.21668 15.7998 7.21668 15.553C7.21668 11.7787 4.18133 8.71453 0.443042 8.71453C0.198398 8.71453 0.000247955 8.51444 0.000247955 8.26751Z" fill="#5E70EE"/>
<path fill-rule="evenodd" clip-rule="evenodd" d="M17.2786 7.73249V8.29126C17.2786 8.53813 17.0804 8.73828 16.8358 8.73828C12.3032 8.73828 8.62305 5.0231 8.62305 0.447019C8.62305 0.200153 8.8212 0 9.06584 0L9.61934 0C9.86398 0 10.0621 0.200153 10.0621 0.447019C10.0621 4.22126 13.0975 7.28547 16.8358 7.28547C17.0804 7.28547 17.2786 7.48556 17.2786 7.73249Z" fill="#5E70EE"/>
</svg>
