<svg width="20" height="20" viewBox="0 0 20 20" fill="none" xmlns="http://www.w3.org/2000/svg">
<path d="M12.9997 7.99941L8.99959 11.9995L6.99954 9.99946M11.2456 1.45825L12.4667 2.49828C12.7747 2.76029 13.1567 2.91829 13.5587 2.95129L15.1587 3.07929C15.6135 3.11561 16.0405 3.31267 16.3632 3.63518C16.6859 3.9577 16.8832 4.38457 16.9198 4.83934L17.0468 6.43937C17.0798 6.84238 17.2388 7.22539 17.5008 7.5324L18.5408 8.75243C18.8372 9.09993 19 9.54172 19 9.99846C19 10.4552 18.8372 10.897 18.5408 11.2445L17.5008 12.4655C17.2388 12.7735 17.0798 13.1555 17.0478 13.5585L16.9198 15.1586C16.8835 15.6134 16.6864 16.0404 16.3639 16.3631C16.0414 16.6857 15.6145 16.8831 15.1597 16.9196L13.5597 17.0476C13.1569 17.0795 12.7744 17.2377 12.4667 17.4996L11.2456 18.5397C10.8981 18.8361 10.4564 18.9989 9.99961 18.9989C9.54287 18.9989 9.10108 18.8361 8.75358 18.5397L7.53355 17.4996C7.22558 17.2375 6.8427 17.0793 6.43952 17.0476L4.83948 16.9196C4.38456 16.883 3.95756 16.6856 3.63503 16.3627C3.31249 16.0398 3.11553 15.6125 3.07944 15.1576L2.95144 13.5585C2.91905 13.156 2.76053 12.7738 2.49843 12.4665L1.4584 11.2445C1.16252 10.8971 1.00002 10.4558 1.00002 9.99946C1.00002 9.54317 1.16252 9.10179 1.4584 8.75443L2.49843 7.5324C2.76143 7.22439 2.91844 6.84238 2.95044 6.43937L3.07844 4.84034C3.11485 4.38508 3.31234 3.95771 3.63547 3.63495C3.95859 3.31219 4.38619 3.11518 4.84148 3.07929L6.43952 2.95229C6.84247 2.92011 7.22498 2.76158 7.53255 2.49928L8.75358 1.45925C9.10108 1.16285 9.54287 1.00002 9.99961 1.00002C10.4564 1.00002 10.8981 1.16185 11.2456 1.45825Z" stroke="#5E70EE" stroke-width="2" stroke-linecap="round" stroke-linejoin="round"/>
</svg>
